<svg width="650" height="240" viewBox="0 0 650 240" fill="none" xmlns="http://www.w3.org/2000/svg">
<path d="M180.6 144C194.733 144 201.8 150 201.8 162C201.8 171.6 199.133 178.267 193.8 182C188.467 185.733 180.067 187.6 168.6 187.6H160.2L158.6 208.8C157.8 221.067 155.133 229.333 150.6 233.6C146.333 237.867 139.267 240 129.4 240C115.267 240 108.2 231.333 108.2 214C108.2 211.067 108.333 208.8 108.6 207.2L110.6 187.6C71.9333 187.6 42.6 187.467 22.6 187.2C16.7333 187.2 11.5333 184.533 7 179.2C2.46667 173.867 0.2 166.933 0.2 158.4C0.2 153.333 1.13333 148 3 142.4C14.7333 108.267 32.3333 69.4667 55.8 26C60.8667 16.6667 65.9333 10.1333 71 6.4C76.3333 2.39999 84.4667 0.39998 95.4 0.39998C101.267 0.39998 105.667 1.73332 108.6 4.4C111.8 7.06666 113.4 10.5333 113.4 14.8C113.4 19.3333 112.067 23.8667 109.4 28.4C83.2667 76.1333 64.8667 114.667 54.2 144H115.8C119 119.2 123.4 95.6 129 73.2C131.133 64.9333 134.6 58.6667 139.4 54.4C144.2 49.8667 150.867 47.6 159.4 47.6C173 47.6 179.8 53.4667 179.8 65.2C179.8 68.6667 179.533 71.3333 179 73.2C174.2 95.8667 169.933 119.467 166.2 144H180.6Z" fill="#6CC0EC"/>
<path d="M314.259 236C288.126 236 267.859 227.467 253.459 210.4C239.326 193.333 232.259 168.933 232.259 137.2C232.259 110.267 236.393 86.5333 244.659 66C253.193 45.2 264.926 29.0667 279.859 17.6C295.059 6.13332 312.659 0.39998 332.659 0.39998C358.793 0.39998 378.926 8.93331 393.059 26C407.459 43.0667 414.659 67.4667 414.659 99.2C414.659 126.133 410.393 150 401.859 170.8C393.593 191.333 381.859 207.333 366.659 218.8C351.726 230.267 334.259 236 314.259 236ZM318.259 191.2C332.659 191.2 343.993 183.2 352.259 167.2C360.526 151.2 364.659 129.467 364.659 102C364.659 83.6 361.593 69.6 355.459 60C349.326 50.1333 340.393 45.2 328.659 45.2C314.259 45.2 302.926 53.3333 294.659 69.6C286.393 85.6 282.259 107.333 282.259 134.8C282.259 153.2 285.193 167.2 291.059 176.8C297.193 186.4 306.259 191.2 318.259 191.2Z" fill="#5BB084"/>
<path d="M628.647 144C642.78 144 649.847 150 649.847 162C649.847 171.6 647.18 178.267 641.847 182C636.514 185.733 628.114 187.6 616.647 187.6H608.247L606.647 208.8C605.847 221.067 603.18 229.333 598.647 233.6C594.38 237.867 587.314 240 577.447 240C563.314 240 556.247 231.333 556.247 214C556.247 211.067 556.38 208.8 556.647 207.2L558.647 187.6C519.98 187.6 490.647 187.467 470.647 187.2C464.78 187.2 459.58 184.533 455.047 179.2C450.514 173.867 448.247 166.933 448.247 158.4C448.247 153.333 449.18 148 451.047 142.4C462.78 108.267 480.38 69.4667 503.847 26C508.914 16.6667 513.98 10.1333 519.047 6.4C524.38 2.39999 532.514 0.39998 543.447 0.39998C549.314 0.39998 553.714 1.73332 556.647 4.4C559.847 7.06666 561.447 10.5333 561.447 14.8C561.447 19.3333 560.114 23.8667 557.447 28.4C531.314 76.1333 512.914 114.667 502.247 144H563.847C567.047 119.2 571.447 95.6 577.047 73.2C579.18 64.9333 582.647 58.6667 587.447 54.4C592.247 49.8667 598.914 47.6 607.447 47.6C621.047 47.6 627.847 53.4667 627.847 65.2C627.847 68.6667 627.58 71.3333 627.047 73.2C622.247 95.8667 617.98 119.467 614.247 144H628.647Z" fill="#B384DA"/>
</svg>
