<svg width="746" height="200" viewBox="0 0 746 200" fill="none" xmlns="http://www.w3.org/2000/svg">
<g clip-path="url(#clip0_92_251)">
<circle cx="33.3333" cy="108.667" r="33.3333" fill="url(#paint0_linear_92_251)"/>
<circle cx="122.334" cy="41.6667" r="41.6667" fill="url(#paint1_linear_92_251)"/>
<path d="M150 200C177.615 200 200 177.614 200 150C200 122.386 177.615 100 150 100C122.386 100 100 122.386 100 150V150C100 150.376 99.742 150.703 99.378 150.798C88.6151 153.586 80.667 163.365 80.667 175C80.667 188.807 91.86 200 105.667 200C111.238 200 116.383 198.178 120.539 195.097C122.428 193.697 124.979 193.363 127.067 194.442C133.936 197.994 141.734 200 150 200Z" fill="url(#paint2_linear_92_251)"/>
</g>
<path d="M300 143.5C295.4 143.5 291.233 142.367 287.5 140.1C283.833 137.833 280.933 134.567 278.8 130.3C276.667 125.967 275.6 120.867 275.6 115C275.6 104.867 277.767 95.5 282.1 86.9C286.433 78.2333 292.833 71.3 301.3 66.1C309.767 60.8333 319.933 58.2 331.8 58.2C334.867 58.2 338.133 58.4333 341.6 58.9C345.133 59.3667 348.333 60.0667 351.2 61C353.067 61.5333 354 62.8667 354 65C354 66.7333 353.333 68.3667 352 69.9C350.733 71.4333 349.233 72.2 347.5 72.2C346.967 72.2 346.567 72.1667 346.3 72.1C342.833 71.3 339.867 70.7333 337.4 70.4C334.933 70 332.333 69.8 329.6 69.8C321.133 69.8 313.933 71.8667 308 76C302.067 80.0667 297.633 85.4667 294.7 92.2C291.767 98.9333 290.3 106.2 290.3 114C290.3 119.667 291.4 124.067 293.6 127.2C295.867 130.267 298.8 131.8 302.4 131.8C306.467 131.8 310.033 130.133 313.1 126.8C316.167 123.467 318.967 118.067 321.5 110.6C324.033 103.133 326.533 93 329 80.2C329.4 78.3333 330.2 77.0667 331.4 76.4C332.6 75.7333 334.2 75.4 336.2 75.4C340.933 75.4 343.3 76.9333 343.3 80C343.3 80.5333 343.2 81.2 343 82C341.267 88.4667 339.667 95.6333 338.2 103.5C336.8 111.3 336.1 117.233 336.1 121.3C336.1 124.9 336.633 127.533 337.7 129.2C338.767 130.8 340.4 131.6 342.6 131.6C344.733 131.6 346.767 130.9 348.7 129.5C350.633 128.033 353.067 125.567 356 122.1C356.8 121.167 357.7 120.7 358.7 120.7C359.567 120.7 360.233 121.1 360.7 121.9C361.233 122.7 361.5 123.8 361.5 125.2C361.5 127.8 360.867 129.867 359.6 131.4C356.333 135.333 353.133 138.333 350 140.4C346.867 142.467 343.033 143.5 338.5 143.5C333.833 143.5 330.067 142.167 327.2 139.5C324.333 136.767 322.533 132.933 321.8 128C316.867 138.333 309.6 143.5 300 143.5ZM393.813 110.1C395.28 110.1 396.513 110.633 397.513 111.7C398.58 112.7 399.113 113.967 399.113 115.5C399.113 116.367 398.913 117.3 398.513 118.3C397.447 120.767 395.947 122.833 394.013 124.5C392.08 126.167 389.947 127 387.613 127C385.747 127 384.147 126.333 382.813 125C381.547 123.667 380.913 121.867 380.913 119.6C380.913 118.333 380.98 116.967 381.113 115.5C381.247 114.433 381.313 113.7 381.313 113.3C381.313 112.767 381.18 112.367 380.913 112.1C380.713 111.833 380.447 111.7 380.113 111.7C379.18 111.7 377.913 112.833 376.313 115.1C374.713 117.3 373.113 120.233 371.513 123.9C369.913 127.567 368.613 131.433 367.613 135.5C366.88 138.7 366.047 140.833 365.113 141.9C364.18 142.967 362.647 143.5 360.513 143.5C357.98 143.5 356.18 142.167 355.113 139.5C354.113 136.833 353.613 132.567 353.613 126.7C353.613 118.033 354.847 109.8 357.313 102C357.913 100.067 358.88 98.6667 360.213 97.8C361.613 96.8667 363.547 96.4 366.013 96.4C367.347 96.4 368.28 96.5667 368.813 96.9C369.347 97.2333 369.613 97.8667 369.613 98.8C369.613 99.8667 369.113 102.267 368.113 106C367.447 108.667 366.913 111 366.513 113C366.113 115 365.78 117.467 365.513 120.4C367.713 114.667 370.18 110 372.913 106.4C375.647 102.8 378.313 100.233 380.913 98.7C383.513 97.1667 385.88 96.4 388.013 96.4C389.947 96.4 391.413 96.9667 392.413 98.1C393.48 99.1667 394.013 100.767 394.013 102.9C394.013 104.167 393.647 106.567 392.913 110.1H393.813ZM447.525 120.7C448.392 120.7 449.058 121.1 449.525 121.9C450.058 122.7 450.325 123.8 450.325 125.2C450.325 127.867 449.692 129.933 448.425 131.4C445.558 134.933 442.425 137.833 439.025 140.1C435.625 142.367 431.725 143.5 427.325 143.5C413.725 143.5 406.925 133.933 406.925 114.8C406.925 111.867 407.025 108.9 407.225 105.9H403.325C401.325 105.9 399.958 105.533 399.225 104.8C398.558 104.067 398.225 102.9 398.225 101.3C398.225 97.5667 399.725 95.7 402.725 95.7H408.425C409.558 88.3667 411.292 81.6667 413.625 75.6C415.958 69.5333 418.758 64.7 422.025 61.1C425.358 57.5 428.925 55.7 432.725 55.7C435.525 55.7 437.725 56.9333 439.325 59.4C440.925 61.8667 441.725 64.9667 441.725 68.7C441.725 79.0333 437.392 88.0333 428.725 95.7H439.925C440.992 95.7 441.758 95.9333 442.225 96.4C442.692 96.8667 442.925 97.7333 442.925 99C442.925 103.6 439.158 105.9 431.625 105.9H419.425C419.292 109.233 419.225 111.833 419.225 113.7C419.225 120.633 420.025 125.5 421.625 128.3C423.292 131.1 425.892 132.5 429.425 132.5C432.292 132.5 434.825 131.633 437.025 129.9C439.225 128.167 441.825 125.567 444.825 122.1C445.625 121.167 446.525 120.7 447.525 120.7ZM430.025 65.3C429.025 65.3 427.892 66.5667 426.625 69.1C425.425 71.5667 424.258 75.0333 423.125 79.5C422.058 83.9 421.158 88.8 420.425 94.2C424.358 90.8 427.292 87 429.225 82.8C431.225 78.5333 432.225 74.6667 432.225 71.2C432.225 67.2667 431.492 65.3 430.025 65.3ZM524.183 79C524.183 84.6667 522.183 89.5667 518.183 93.7C514.183 97.7667 508.349 100.7 500.683 102.5C504.816 103.633 507.949 105.5 510.083 108.1C512.216 110.633 513.283 113.567 513.283 116.9C513.283 122.167 511.616 126.733 508.283 130.6C505.016 134.467 500.216 137.467 493.883 139.6C487.549 141.667 479.916 142.7 470.983 142.7C467.649 142.7 464.983 142.6 462.983 142.4C462.916 144.267 462.116 145.667 460.583 146.6C459.049 147.533 457.083 148 454.683 148C452.283 148 450.616 147.467 449.683 146.4C448.816 145.333 448.449 143.767 448.583 141.7C449.183 132.367 450.349 122.6 452.083 112.4C453.816 102.133 456.016 92.2333 458.683 82.7C459.149 81.0333 460.083 79.8667 461.483 79.2C462.883 78.5333 464.716 78.2 466.983 78.2C471.049 78.2 473.083 79.3333 473.083 81.6C473.083 82.5333 472.883 83.6 472.483 84.8C470.749 90 469.016 97.0667 467.283 106C465.549 114.867 464.316 123.333 463.583 131.4C466.783 131.667 469.383 131.8 471.383 131.8C480.716 131.8 487.549 130.467 491.883 127.8C496.283 125.067 498.483 121.6 498.483 117.4C498.483 114.467 497.216 112 494.683 110C492.216 108 488.049 106.9 482.183 106.7C480.849 106.633 479.916 106.3 479.383 105.7C478.849 105.1 478.583 104.133 478.583 102.8C478.583 100.867 478.983 99.3 479.783 98.1C480.583 96.9 482.049 96.2667 484.183 96.2C488.916 96.0667 493.183 95.3667 496.983 94.1C500.849 92.8333 503.883 91.0667 506.083 88.8C508.283 86.4667 509.383 83.7667 509.383 80.7C509.383 76.8333 507.483 73.8 503.683 71.6C499.883 69.3333 494.049 68.2 486.183 68.2C479.049 68.2 472.149 69.1333 465.483 71C458.816 72.8 453.149 75.1 448.483 77.9C446.349 79.1667 444.549 79.8 443.083 79.8C441.883 79.8 440.949 79.4 440.283 78.6C439.683 77.7333 439.383 76.6667 439.383 75.4C439.383 73.7333 439.716 72.3 440.383 71.1C441.116 69.9 442.816 68.5333 445.483 67C451.083 63.8 457.649 61.3 465.183 59.5C472.716 57.7 480.416 56.8 488.283 56.8C500.349 56.8 509.349 58.8333 515.283 62.9C521.216 66.9667 524.183 72.3333 524.183 79ZM533.145 143.5C530.145 143.5 527.678 142.133 525.745 139.4C523.878 136.6 522.945 133.133 522.945 129C522.945 124 523.278 119.433 523.945 115.3C524.611 111.1 525.711 106.667 527.245 102C527.911 100 528.845 98.5667 530.045 97.7C531.245 96.8333 533.145 96.4 535.745 96.4C537.211 96.4 538.211 96.6333 538.745 97.1C539.345 97.5667 539.645 98.2667 539.645 99.2C539.645 99.7333 539.278 101.533 538.545 104.6C537.878 107.067 537.345 109.3 536.945 111.3C535.611 118.3 534.945 122.967 534.945 125.3C534.945 126.7 535.111 127.7 535.445 128.3C535.778 128.833 536.311 129.1 537.045 129.1C538.045 129.1 539.278 128.1 540.745 126.1C542.278 124.1 543.878 121.067 545.545 117C547.278 112.933 548.945 107.933 550.545 102C551.078 100 551.878 98.5667 552.945 97.7C554.078 96.8333 555.745 96.4 557.945 96.4C559.478 96.4 560.545 96.6 561.145 97C561.745 97.3333 562.045 98 562.045 99C562.045 100.667 561.211 105.233 559.545 112.7C557.678 121.233 556.745 126.5 556.745 128.5C556.745 129.767 557.011 130.767 557.545 131.5C558.078 132.167 558.778 132.5 559.645 132.5C560.978 132.5 562.545 131.7 564.345 130.1C566.211 128.433 568.678 125.767 571.745 122.1C572.545 121.167 573.445 120.7 574.445 120.7C575.311 120.7 575.978 121.1 576.445 121.9C576.978 122.7 577.245 123.8 577.245 125.2C577.245 127.867 576.611 129.933 575.345 131.4C572.478 134.933 569.378 137.833 566.045 140.1C562.778 142.367 559.045 143.5 554.845 143.5C551.645 143.5 549.278 142.267 547.745 139.8C546.278 137.333 545.545 133.867 545.545 129.4C544.411 133.933 542.711 137.433 540.445 139.9C538.178 142.3 535.745 143.5 533.145 143.5ZM622.336 112.3C623.203 112.3 623.869 112.733 624.336 113.6C624.803 114.467 625.036 115.567 625.036 116.9C625.036 118.567 624.803 119.867 624.336 120.8C623.869 121.667 623.136 122.267 622.136 122.6C618.136 124 613.736 124.8 608.936 125C607.603 130.533 605.069 135 601.336 138.4C597.669 141.8 593.603 143.5 589.136 143.5C582.403 143.5 577.503 140.933 574.436 135.8C571.369 130.667 569.836 123.233 569.836 113.5C569.836 104.9 570.903 95.5667 573.036 85.5C575.169 75.3667 578.269 66.7667 582.336 59.7C586.469 52.5667 591.369 49 597.036 49C600.103 49 602.569 50.3333 604.436 53C606.303 55.6 607.236 59 607.236 63.2C607.236 68.6667 606.203 74.1 604.136 79.5C602.069 84.9 598.636 90.5667 593.836 96.5C598.303 96.8333 601.936 98.7 604.736 102.1C607.536 105.433 609.203 109.567 609.736 114.5C612.869 114.3 616.603 113.633 620.936 112.5C621.336 112.367 621.803 112.3 622.336 112.3ZM594.736 58.9C593.403 58.9 591.936 60.9 590.336 64.9C588.803 68.8333 587.369 74.2 586.036 81C584.703 87.8 583.703 95.2333 583.036 103.3C587.436 95.2333 590.936 88.1333 593.536 82C596.203 75.8 597.536 70.3 597.536 65.5C597.536 63.3667 597.269 61.7333 596.736 60.6C596.269 59.4667 595.603 58.9 594.736 58.9ZM589.536 132.9C591.603 132.9 593.436 132.033 595.036 130.3C596.636 128.567 597.703 126.067 598.236 122.8C596.169 121.4 594.569 119.567 593.436 117.3C592.369 115.033 591.836 112.633 591.836 110.1C591.836 109.167 591.969 107.9 592.236 106.3H591.936C589.203 106.3 586.903 107.667 585.036 110.4C583.236 113.067 582.336 116.667 582.336 121.2C582.336 125 583.036 127.9 584.436 129.9C585.903 131.9 587.603 132.9 589.536 132.9ZM669.602 112.3C670.468 112.3 671.135 112.733 671.602 113.6C672.068 114.467 672.302 115.567 672.302 116.9C672.302 118.567 672.068 119.867 671.602 120.8C671.135 121.667 670.402 122.267 669.402 122.6C665.402 124 661.002 124.8 656.202 125C654.868 130.533 652.335 135 648.602 138.4C644.935 141.8 640.868 143.5 636.402 143.5C629.668 143.5 624.768 140.933 621.702 135.8C618.635 130.667 617.102 123.233 617.102 113.5C617.102 104.9 618.168 95.5667 620.302 85.5C622.435 75.3667 625.535 66.7667 629.602 59.7C633.735 52.5667 638.635 49 644.302 49C647.368 49 649.835 50.3333 651.702 53C653.568 55.6 654.502 59 654.502 63.2C654.502 68.6667 653.468 74.1 651.402 79.5C649.335 84.9 645.902 90.5667 641.102 96.5C645.568 96.8333 649.202 98.7 652.002 102.1C654.802 105.433 656.468 109.567 657.002 114.5C660.135 114.3 663.868 113.633 668.202 112.5C668.602 112.367 669.068 112.3 669.602 112.3ZM642.002 58.9C640.668 58.9 639.202 60.9 637.602 64.9C636.068 68.8333 634.635 74.2 633.302 81C631.968 87.8 630.968 95.2333 630.302 103.3C634.702 95.2333 638.202 88.1333 640.802 82C643.468 75.8 644.802 70.3 644.802 65.5C644.802 63.3667 644.535 61.7333 644.002 60.6C643.535 59.4667 642.868 58.9 642.002 58.9ZM636.802 132.9C638.868 132.9 640.702 132.033 642.302 130.3C643.902 128.567 644.968 126.067 645.502 122.8C643.435 121.4 641.835 119.567 640.702 117.3C639.635 115.033 639.102 112.633 639.102 110.1C639.102 109.167 639.235 107.9 639.502 106.3H639.202C636.468 106.3 634.168 107.667 632.302 110.4C630.502 113.067 629.602 116.667 629.602 121.2C629.602 125 630.302 127.9 631.702 129.9C633.168 131.9 634.868 132.9 636.802 132.9ZM701.567 120.7C702.434 120.7 703.101 121.1 703.567 121.9C704.101 122.7 704.367 123.8 704.367 125.2C704.367 127.867 703.734 129.933 702.467 131.4C699.601 134.933 696.467 137.833 693.067 140.1C689.734 142.367 685.934 143.5 681.667 143.5C675.801 143.5 671.434 140.833 668.567 135.5C665.767 130.167 664.367 123.267 664.367 114.8C664.367 106.667 665.401 97.4 667.467 87C669.601 76.6 672.701 67.6667 676.767 60.2C680.901 52.7333 685.801 49 691.467 49C694.667 49 697.167 50.5 698.967 53.5C700.834 56.4333 701.767 60.6667 701.767 66.2C701.767 74.1333 699.567 83.3333 695.167 93.8C690.767 104.267 684.801 114.633 677.267 124.9C677.734 127.633 678.501 129.6 679.567 130.8C680.634 131.933 682.034 132.5 683.767 132.5C686.501 132.5 688.901 131.733 690.967 130.2C693.034 128.6 695.667 125.9 698.867 122.1C699.667 121.167 700.567 120.7 701.567 120.7ZM689.267 58.9C687.734 58.9 686.001 61.6667 684.067 67.2C682.134 72.7333 680.434 79.6 678.967 87.8C677.501 96 676.701 103.867 676.567 111.4C681.301 103.6 685.067 95.8 687.867 88C690.667 80.1333 692.067 72.9667 692.067 66.5C692.067 61.4333 691.134 58.9 689.267 58.9ZM732.084 123.7C732.951 123.7 733.618 124.1 734.084 124.9C734.618 125.7 734.884 126.8 734.884 128.2C734.884 130.6 734.318 132.667 733.184 134.4C731.318 137.267 728.851 139.5 725.784 141.1C722.784 142.7 719.184 143.5 714.984 143.5C708.584 143.5 703.618 141.6 700.084 137.8C696.551 133.933 694.784 128.733 694.784 122.2C694.784 117.6 695.751 113.333 697.684 109.4C699.618 105.4 702.284 102.233 705.684 99.9C709.151 97.5667 713.051 96.4 717.384 96.4C721.251 96.4 724.351 97.5667 726.684 99.9C729.018 102.167 730.184 105.267 730.184 109.2C730.184 113.8 728.518 117.767 725.184 121.1C721.918 124.367 716.318 126.967 708.384 128.9C709.984 131.967 712.684 133.5 716.484 133.5C719.218 133.5 721.451 132.867 723.184 131.6C724.984 130.333 727.051 128.2 729.384 125.2C730.184 124.2 731.084 123.7 732.084 123.7ZM715.684 106.2C713.218 106.2 711.118 107.633 709.384 110.5C707.718 113.367 706.884 116.833 706.884 120.9V121.1C710.818 120.167 713.918 118.767 716.184 116.9C718.451 115.033 719.584 112.867 719.584 110.4C719.584 109.133 719.218 108.133 718.484 107.4C717.818 106.6 716.884 106.2 715.684 106.2Z" fill="#1A1A1A"/>
<defs>
<linearGradient id="paint0_linear_92_251" x1="59.5" y1="130.5" x2="3.54648e-06" y2="108.667" gradientUnits="userSpaceOnUse">
<stop stop-color="#6CC0EC"/>
<stop offset="1" stop-color="#6CC0EC" stop-opacity="0.4"/>
<stop offset="1" stop-color="#6CC0EC" stop-opacity="0"/>
</linearGradient>
<linearGradient id="paint1_linear_92_251" x1="164" y1="37" x2="94.3337" y2="69.5" gradientUnits="userSpaceOnUse">
<stop stop-color="#5BB084"/>
<stop offset="1" stop-color="#5BB084" stop-opacity="0.4"/>
</linearGradient>
<linearGradient id="paint2_linear_92_251" x1="185.167" y1="187" x2="84.8337" y2="163.5" gradientUnits="userSpaceOnUse">
<stop stop-color="#B384DA"/>
<stop offset="1" stop-color="#B384DA" stop-opacity="0.4"/>
</linearGradient>
<clipPath id="clip0_92_251">
<rect width="200" height="200" fill="white"/>
</clipPath>
</defs>
</svg>
