<svg width="460" height="99" viewBox="0 0 460 99" fill="none" xmlns="http://www.w3.org/2000/svg">
<path d="M25 94.5C20.4 94.5 16.2333 93.3667 12.5 91.1C8.83333 88.8333 5.93333 85.5667 3.8 81.3C1.66667 76.9667 0.6 71.8667 0.6 66C0.6 55.8667 2.76667 46.5 7.1 37.9C11.4333 29.2333 17.8333 22.3 26.3 17.1C34.7667 11.8333 44.9333 9.2 56.8 9.2C59.8667 9.2 63.1333 9.43333 66.6 9.9C70.1333 10.3667 73.3333 11.0667 76.2 12C78.0667 12.5333 79 13.8667 79 16C79 17.7333 78.3333 19.3667 77 20.9C75.7333 22.4333 74.2333 23.2 72.5 23.2C71.9667 23.2 71.5667 23.1667 71.3 23.1C67.8333 22.3 64.8667 21.7333 62.4 21.4C59.9333 21 57.3333 20.8 54.6 20.8C46.1333 20.8 38.9333 22.8667 33 27C27.0667 31.0667 22.6333 36.4667 19.7 43.2C16.7667 49.9333 15.3 57.2 15.3 65C15.3 70.6667 16.4 75.0667 18.6 78.2C20.8667 81.2667 23.8 82.8 27.4 82.8C31.4667 82.8 35.0333 81.1333 38.1 77.8C41.1667 74.4667 43.9667 69.0667 46.5 61.6C49.0333 54.1333 51.5333 44 54 31.2C54.4 29.3333 55.2 28.0667 56.4 27.4C57.6 26.7333 59.2 26.4 61.2 26.4C65.9333 26.4 68.3 27.9333 68.3 31C68.3 31.5333 68.2 32.2 68 33C66.2667 39.4667 64.6667 46.6333 63.2 54.5C61.8 62.3 61.1 68.2333 61.1 72.3C61.1 75.9 61.6333 78.5333 62.7 80.2C63.7667 81.8 65.4 82.6 67.6 82.6C69.7333 82.6 71.7667 81.9 73.7 80.5C75.6333 79.0333 78.0667 76.5667 81 73.1C81.8 72.1667 82.7 71.7 83.7 71.7C84.5667 71.7 85.2333 72.1 85.7 72.9C86.2333 73.7 86.5 74.8 86.5 76.2C86.5 78.8 85.8667 80.8667 84.6 82.4C81.3333 86.3333 78.1333 89.3333 75 91.4C71.8667 93.4667 68.0333 94.5 63.5 94.5C58.8333 94.5 55.0667 93.1667 52.2 90.5C49.3333 87.7667 47.5333 83.9333 46.8 79C41.8667 89.3333 34.6 94.5 25 94.5ZM118.813 61.1C120.28 61.1 121.513 61.6333 122.513 62.7C123.58 63.7 124.113 64.9667 124.113 66.5C124.113 67.3667 123.913 68.3 123.513 69.3C122.447 71.7667 120.947 73.8333 119.013 75.5C117.08 77.1667 114.947 78 112.613 78C110.747 78 109.147 77.3333 107.813 76C106.547 74.6667 105.913 72.8667 105.913 70.6C105.913 69.3333 105.98 67.9667 106.113 66.5C106.247 65.4333 106.313 64.7 106.313 64.3C106.313 63.7667 106.18 63.3667 105.913 63.1C105.713 62.8333 105.447 62.7 105.113 62.7C104.18 62.7 102.913 63.8333 101.313 66.1C99.7133 68.3 98.1133 71.2333 96.5133 74.9C94.9133 78.5667 93.6133 82.4333 92.6133 86.5C91.8799 89.7 91.0466 91.8333 90.1133 92.9C89.1799 93.9667 87.6466 94.5 85.5133 94.5C82.9799 94.5 81.1799 93.1667 80.1133 90.5C79.1133 87.8333 78.6133 83.5667 78.6133 77.7C78.6133 69.0333 79.8466 60.8 82.3133 53C82.9133 51.0667 83.8799 49.6667 85.2133 48.8C86.6133 47.8667 88.5466 47.4 91.0133 47.4C92.3466 47.4 93.2799 47.5667 93.8133 47.9C94.3466 48.2333 94.6133 48.8667 94.6133 49.8C94.6133 50.8667 94.1133 53.2667 93.1133 57C92.4466 59.6667 91.9133 62 91.5133 64C91.1133 66 90.7799 68.4667 90.5133 71.4C92.7133 65.6667 95.1799 61 97.9133 57.4C100.647 53.8 103.313 51.2333 105.913 49.7C108.513 48.1667 110.88 47.4 113.013 47.4C114.947 47.4 116.413 47.9667 117.413 49.1C118.48 50.1667 119.013 51.7667 119.013 53.9C119.013 55.1667 118.647 57.5667 117.913 61.1H118.813ZM172.525 71.7C173.392 71.7 174.058 72.1 174.525 72.9C175.058 73.7 175.325 74.8 175.325 76.2C175.325 78.8667 174.692 80.9333 173.425 82.4C170.558 85.9333 167.425 88.8333 164.025 91.1C160.625 93.3667 156.725 94.5 152.325 94.5C138.725 94.5 131.925 84.9333 131.925 65.8C131.925 62.8667 132.025 59.9 132.225 56.9H128.325C126.325 56.9 124.958 56.5333 124.225 55.8C123.558 55.0667 123.225 53.9 123.225 52.3C123.225 48.5667 124.725 46.7 127.725 46.7H133.425C134.558 39.3667 136.292 32.6667 138.625 26.6C140.958 20.5333 143.758 15.7 147.025 12.1C150.358 8.5 153.925 6.7 157.725 6.7C160.525 6.7 162.725 7.93333 164.325 10.4C165.925 12.8667 166.725 15.9667 166.725 19.7C166.725 30.0333 162.392 39.0333 153.725 46.7H164.925C165.992 46.7 166.758 46.9333 167.225 47.4C167.692 47.8667 167.925 48.7333 167.925 50C167.925 54.6 164.158 56.9 156.625 56.9H144.425C144.292 60.2333 144.225 62.8333 144.225 64.7C144.225 71.6333 145.025 76.5 146.625 79.3C148.292 82.1 150.892 83.5 154.425 83.5C157.292 83.5 159.825 82.6333 162.025 80.9C164.225 79.1667 166.825 76.5667 169.825 73.1C170.625 72.1667 171.525 71.7 172.525 71.7ZM155.025 16.3C154.025 16.3 152.892 17.5667 151.625 20.1C150.425 22.5667 149.258 26.0333 148.125 30.5C147.058 34.9 146.158 39.8 145.425 45.2C149.358 41.8 152.292 38 154.225 33.8C156.225 29.5333 157.225 25.6667 157.225 22.2C157.225 18.2667 156.492 16.3 155.025 16.3ZM249.183 30C249.183 35.6667 247.183 40.5667 243.183 44.7C239.183 48.7667 233.349 51.7 225.683 53.5C229.816 54.6333 232.949 56.5 235.083 59.1C237.216 61.6333 238.283 64.5667 238.283 67.9C238.283 73.1667 236.616 77.7333 233.283 81.6C230.016 85.4667 225.216 88.4667 218.883 90.6C212.549 92.6667 204.916 93.7 195.983 93.7C192.649 93.7 189.983 93.6 187.983 93.4C187.916 95.2667 187.116 96.6667 185.583 97.6C184.049 98.5333 182.083 99 179.683 99C177.283 99 175.616 98.4667 174.683 97.4C173.816 96.3333 173.449 94.7667 173.583 92.7C174.183 83.3667 175.349 73.6 177.083 63.4C178.816 53.1333 181.016 43.2333 183.683 33.7C184.149 32.0333 185.083 30.8667 186.483 30.2C187.883 29.5333 189.716 29.2 191.983 29.2C196.049 29.2 198.083 30.3333 198.083 32.6C198.083 33.5333 197.883 34.6 197.483 35.8C195.749 41 194.016 48.0667 192.283 57C190.549 65.8667 189.316 74.3333 188.583 82.4C191.783 82.6667 194.383 82.8 196.383 82.8C205.716 82.8 212.549 81.4667 216.883 78.8C221.283 76.0667 223.483 72.6 223.483 68.4C223.483 65.4667 222.216 63 219.683 61C217.216 59 213.049 57.9 207.183 57.7C205.849 57.6333 204.916 57.3 204.383 56.7C203.849 56.1 203.583 55.1333 203.583 53.8C203.583 51.8667 203.983 50.3 204.783 49.1C205.583 47.9 207.049 47.2667 209.183 47.2C213.916 47.0667 218.183 46.3667 221.983 45.1C225.849 43.8333 228.883 42.0667 231.083 39.8C233.283 37.4667 234.383 34.7667 234.383 31.7C234.383 27.8333 232.483 24.8 228.683 22.6C224.883 20.3333 219.049 19.2 211.183 19.2C204.049 19.2 197.149 20.1333 190.483 22C183.816 23.8 178.149 26.1 173.483 28.9C171.349 30.1667 169.549 30.8 168.083 30.8C166.883 30.8 165.949 30.4 165.283 29.6C164.683 28.7333 164.383 27.6667 164.383 26.4C164.383 24.7333 164.716 23.3 165.383 22.1C166.116 20.9 167.816 19.5333 170.483 18C176.083 14.8 182.649 12.3 190.183 10.5C197.716 8.7 205.416 7.8 213.283 7.8C225.349 7.8 234.349 9.83333 240.283 13.9C246.216 17.9667 249.183 23.3333 249.183 30ZM258.145 94.5C255.145 94.5 252.678 93.1333 250.745 90.4C248.878 87.6 247.945 84.1333 247.945 80C247.945 75 248.278 70.4333 248.945 66.3C249.611 62.1 250.711 57.6667 252.245 53C252.911 51 253.845 49.5667 255.045 48.7C256.245 47.8333 258.145 47.4 260.745 47.4C262.211 47.4 263.211 47.6333 263.745 48.1C264.345 48.5667 264.645 49.2667 264.645 50.2C264.645 50.7333 264.278 52.5333 263.545 55.6C262.878 58.0667 262.345 60.3 261.945 62.3C260.611 69.3 259.945 73.9667 259.945 76.3C259.945 77.7 260.111 78.7 260.445 79.3C260.778 79.8333 261.311 80.1 262.045 80.1C263.045 80.1 264.278 79.1 265.745 77.1C267.278 75.1 268.878 72.0667 270.545 68C272.278 63.9333 273.945 58.9333 275.545 53C276.078 51 276.878 49.5667 277.945 48.7C279.078 47.8333 280.745 47.4 282.945 47.4C284.478 47.4 285.545 47.6 286.145 48C286.745 48.3333 287.045 49 287.045 50C287.045 51.6667 286.211 56.2333 284.545 63.7C282.678 72.2333 281.745 77.5 281.745 79.5C281.745 80.7667 282.011 81.7667 282.545 82.5C283.078 83.1667 283.778 83.5 284.645 83.5C285.978 83.5 287.545 82.7 289.345 81.1C291.211 79.4333 293.678 76.7667 296.745 73.1C297.545 72.1667 298.445 71.7 299.445 71.7C300.311 71.7 300.978 72.1 301.445 72.9C301.978 73.7 302.245 74.8 302.245 76.2C302.245 78.8667 301.611 80.9333 300.345 82.4C297.478 85.9333 294.378 88.8333 291.045 91.1C287.778 93.3667 284.045 94.5 279.845 94.5C276.645 94.5 274.278 93.2667 272.745 90.8C271.278 88.3333 270.545 84.8667 270.545 80.4C269.411 84.9333 267.711 88.4333 265.445 90.9C263.178 93.3 260.745 94.5 258.145 94.5ZM347.336 63.3C348.203 63.3 348.869 63.7333 349.336 64.6C349.803 65.4667 350.036 66.5667 350.036 67.9C350.036 69.5667 349.803 70.8667 349.336 71.8C348.869 72.6667 348.136 73.2667 347.136 73.6C343.136 75 338.736 75.8 333.936 76C332.603 81.5333 330.069 86 326.336 89.4C322.669 92.8 318.603 94.5 314.136 94.5C307.403 94.5 302.503 91.9333 299.436 86.8C296.369 81.6667 294.836 74.2333 294.836 64.5C294.836 55.9 295.903 46.5667 298.036 36.5C300.169 26.3667 303.269 17.7667 307.336 10.7C311.469 3.56666 316.369 -5.72205e-06 322.036 -5.72205e-06C325.103 -5.72205e-06 327.569 1.33333 329.436 4C331.303 6.59999 332.236 9.99999 332.236 14.2C332.236 19.6667 331.203 25.1 329.136 30.5C327.069 35.9 323.636 41.5667 318.836 47.5C323.303 47.8333 326.936 49.7 329.736 53.1C332.536 56.4333 334.203 60.5667 334.736 65.5C337.869 65.3 341.603 64.6333 345.936 63.5C346.336 63.3667 346.803 63.3 347.336 63.3ZM319.736 9.9C318.403 9.9 316.936 11.9 315.336 15.9C313.803 19.8333 312.369 25.2 311.036 32C309.703 38.8 308.703 46.2333 308.036 54.3C312.436 46.2333 315.936 39.1333 318.536 33C321.203 26.8 322.536 21.3 322.536 16.5C322.536 14.3667 322.269 12.7333 321.736 11.6C321.269 10.4667 320.603 9.9 319.736 9.9ZM314.536 83.9C316.603 83.9 318.436 83.0333 320.036 81.3C321.636 79.5667 322.703 77.0667 323.236 73.8C321.169 72.4 319.569 70.5667 318.436 68.3C317.369 66.0333 316.836 63.6333 316.836 61.1C316.836 60.1667 316.969 58.9 317.236 57.3H316.936C314.203 57.3 311.903 58.6667 310.036 61.4C308.236 64.0667 307.336 67.6667 307.336 72.2C307.336 76 308.036 78.9 309.436 80.9C310.903 82.9 312.603 83.9 314.536 83.9ZM394.602 63.3C395.468 63.3 396.135 63.7333 396.602 64.6C397.068 65.4667 397.302 66.5667 397.302 67.9C397.302 69.5667 397.068 70.8667 396.602 71.8C396.135 72.6667 395.402 73.2667 394.402 73.6C390.402 75 386.002 75.8 381.202 76C379.868 81.5333 377.335 86 373.602 89.4C369.935 92.8 365.868 94.5 361.402 94.5C354.668 94.5 349.768 91.9333 346.702 86.8C343.635 81.6667 342.102 74.2333 342.102 64.5C342.102 55.9 343.168 46.5667 345.302 36.5C347.435 26.3667 350.535 17.7667 354.602 10.7C358.735 3.56666 363.635 -5.72205e-06 369.302 -5.72205e-06C372.368 -5.72205e-06 374.835 1.33333 376.702 4C378.568 6.59999 379.502 9.99999 379.502 14.2C379.502 19.6667 378.468 25.1 376.402 30.5C374.335 35.9 370.902 41.5667 366.102 47.5C370.568 47.8333 374.202 49.7 377.002 53.1C379.802 56.4333 381.468 60.5667 382.002 65.5C385.135 65.3 388.868 64.6333 393.202 63.5C393.602 63.3667 394.068 63.3 394.602 63.3ZM367.002 9.9C365.668 9.9 364.202 11.9 362.602 15.9C361.068 19.8333 359.635 25.2 358.302 32C356.968 38.8 355.968 46.2333 355.302 54.3C359.702 46.2333 363.202 39.1333 365.802 33C368.468 26.8 369.802 21.3 369.802 16.5C369.802 14.3667 369.535 12.7333 369.002 11.6C368.535 10.4667 367.868 9.9 367.002 9.9ZM361.802 83.9C363.868 83.9 365.702 83.0333 367.302 81.3C368.902 79.5667 369.968 77.0667 370.502 73.8C368.435 72.4 366.835 70.5667 365.702 68.3C364.635 66.0333 364.102 63.6333 364.102 61.1C364.102 60.1667 364.235 58.9 364.502 57.3H364.202C361.468 57.3 359.168 58.6667 357.302 61.4C355.502 64.0667 354.602 67.6667 354.602 72.2C354.602 76 355.302 78.9 356.702 80.9C358.168 82.9 359.868 83.9 361.802 83.9ZM426.567 71.7C427.434 71.7 428.101 72.1 428.567 72.9C429.101 73.7 429.367 74.8 429.367 76.2C429.367 78.8667 428.734 80.9333 427.467 82.4C424.601 85.9333 421.467 88.8333 418.067 91.1C414.734 93.3667 410.934 94.5 406.667 94.5C400.801 94.5 396.434 91.8333 393.567 86.5C390.767 81.1667 389.367 74.2667 389.367 65.8C389.367 57.6667 390.401 48.4 392.467 38C394.601 27.6 397.701 18.6667 401.767 11.2C405.901 3.73333 410.801 -5.72205e-06 416.467 -5.72205e-06C419.667 -5.72205e-06 422.167 1.49999 423.967 4.5C425.834 7.43333 426.767 11.6667 426.767 17.2C426.767 25.1333 424.567 34.3333 420.167 44.8C415.767 55.2667 409.801 65.6333 402.267 75.9C402.734 78.6333 403.501 80.6 404.567 81.8C405.634 82.9333 407.034 83.5 408.767 83.5C411.501 83.5 413.901 82.7333 415.967 81.2C418.034 79.6 420.667 76.9 423.867 73.1C424.667 72.1667 425.567 71.7 426.567 71.7ZM414.267 9.9C412.734 9.9 411.001 12.6667 409.067 18.2C407.134 23.7333 405.434 30.6 403.967 38.8C402.501 47 401.701 54.8667 401.567 62.4C406.301 54.6 410.067 46.8 412.867 39C415.667 31.1333 417.067 23.9667 417.067 17.5C417.067 12.4333 416.134 9.9 414.267 9.9ZM457.084 74.7C457.951 74.7 458.618 75.1 459.084 75.9C459.618 76.7 459.884 77.8 459.884 79.2C459.884 81.6 459.318 83.6667 458.184 85.4C456.318 88.2667 453.851 90.5 450.784 92.1C447.784 93.7 444.184 94.5 439.984 94.5C433.584 94.5 428.618 92.6 425.084 88.8C421.551 84.9333 419.784 79.7333 419.784 73.2C419.784 68.6 420.751 64.3333 422.684 60.4C424.618 56.4 427.284 53.2333 430.684 50.9C434.151 48.5667 438.051 47.4 442.384 47.4C446.251 47.4 449.351 48.5667 451.684 50.9C454.018 53.1667 455.184 56.2667 455.184 60.2C455.184 64.8 453.518 68.7667 450.184 72.1C446.918 75.3667 441.318 77.9667 433.384 79.9C434.984 82.9667 437.684 84.5 441.484 84.5C444.218 84.5 446.451 83.8667 448.184 82.6C449.984 81.3333 452.051 79.2 454.384 76.2C455.184 75.2 456.084 74.7 457.084 74.7ZM440.684 57.2C438.218 57.2 436.118 58.6333 434.384 61.5C432.718 64.3667 431.884 67.8333 431.884 71.9V72.1C435.818 71.1667 438.918 69.7667 441.184 67.9C443.451 66.0333 444.584 63.8667 444.584 61.4C444.584 60.1333 444.218 59.1333 443.484 58.4C442.818 57.6 441.884 57.2 440.684 57.2Z" fill="#1A1A1A"/>
</svg>
